<svg width="25" height="25" viewBox="0 0 25 25" fill="none" xmlns="http://www.w3.org/2000/svg">
<path d="M12.5 8.30078C14.7922 8.30078 16.6504 6.44259 16.6504 4.15039C16.6504 1.85819 14.7922 0 12.5 0C10.2078 0 8.34961 1.85819 8.34961 4.15039C8.34961 6.44259 10.2078 8.30078 12.5 8.30078Z" fill="#8F7D7D"/>
<path d="M15.5498 8.86304C14.6711 9.43369 13.6237 9.76562 12.5001 9.76562C11.3765 9.76562 10.3291 9.43369 9.45032 8.86304C8.47888 9.23428 7.5782 9.78198 6.79504 10.4849L12.5001 12.6243L18.2051 10.4849C17.422 9.78198 16.5213 9.23423 15.5498 8.86304Z" fill="#8F7D7D"/>
<path d="M21.2891 15.1367H20.8008C20.3963 15.1367 20.0684 15.4646 20.0684 15.8691V17.8223C20.0684 18.2268 20.3963 18.5547 20.8008 18.5547H21.2891C22.2329 18.5547 22.998 17.7896 22.998 16.8457C22.998 15.9019 22.2329 15.1367 21.2891 15.1367Z" fill="#8F7D7D"/>
<path d="M4.27031 11.4393C4.07285 11.5761 3.95508 11.801 3.95508 12.0413V13.6719H4.19922C5.41079 13.6719 6.39648 14.6576 6.39648 15.8692V17.8223C6.39648 19.0338 5.41079 20.0195 4.19922 20.0195H3.95508V21.5628C3.95508 21.8681 4.14448 22.1414 4.43032 22.2485L11.7676 25V13.9141L4.94468 11.3555C4.71973 11.2711 4.46772 11.3024 4.27031 11.4393Z" fill="#8F7D7D"/>
<path d="M18.6035 17.8223V15.8692C18.6035 14.6576 19.5892 13.6719 20.8008 13.6719H21.0449V12.0413C21.0449 11.801 20.9271 11.5761 20.7297 11.4393C20.5322 11.3024 20.2802 11.2711 20.0553 11.3555L13.2324 13.9141V25L20.5697 22.2485C20.8555 22.1414 21.0449 21.8681 21.0449 21.5628V20.0195H20.8008C19.5892 20.0195 18.6035 19.0338 18.6035 17.8223Z" fill="#8F7D7D"/>
<path d="M4.93164 17.8223V15.8691C4.93164 15.4646 4.60371 15.1367 4.19922 15.1367H3.71094C2.76709 15.1367 2.00195 15.9019 2.00195 16.8457C2.00195 17.7896 2.76709 18.5547 3.71094 18.5547H4.19922C4.60371 18.5547 4.93164 18.2268 4.93164 17.8223Z" fill="#8F7D7D"/>
</svg>
