<svg width="28" height="28" viewBox="0 0 28 28" fill="none" xmlns="http://www.w3.org/2000/svg">
<g clip-path="url(#clip0)">
<path d="M17.4998 15.1685C16.8547 15.1685 16.3332 15.6913 16.3332 16.3351V21.0019C16.3332 21.6447 15.8105 22.1685 15.1664 22.1685H11.6665V4.66865C11.6665 3.67233 11.0318 2.78217 10.0776 2.45084L9.73214 2.33527H15.1664C15.8105 2.33527 16.3332 2.85907 16.3332 3.50207V7.00203C16.3332 7.64589 16.8547 8.16862 17.4998 8.16862C18.145 8.16862 18.6664 7.64589 18.6664 7.00203V3.50207C18.6664 1.57243 17.0961 0.00210571 15.1664 0.00210571H2.62497C2.58054 0.00210571 2.54337 0.0219725 2.50022 0.0277402C2.44404 0.0230406 2.39042 0.00210571 2.33338 0.00210571C1.04653 0.00210571 0 1.04842 0 2.33527V23.3351C0 24.3314 0.634667 25.2215 1.58891 25.5529L8.60999 27.8933C8.84796 27.9668 9.08465 28.0018 9.33331 28.0018C10.6202 28.0018 11.6665 26.9553 11.6665 25.6684V24.5019H15.1664C17.0961 24.5019 18.6664 22.9315 18.6664 21.0019V16.3351C18.6664 15.6913 18.145 15.1685 17.4998 15.1685Z" fill="black" fill-opacity="0.69"/>
<path d="M27.658 10.842L22.9912 6.17549C22.6578 5.84181 22.156 5.74141 21.7198 5.92214C21.2846 6.10307 20.9998 6.52882 20.9998 7.00028V10.5002H16.3333C15.6892 10.5002 15.1665 11.0228 15.1665 11.6668C15.1665 12.3109 15.6892 12.8334 16.3333 12.8334H20.9998V16.3334C20.9998 16.8048 21.2846 17.2306 21.7198 17.4115C22.156 17.5922 22.6578 17.4918 22.9912 17.1584L27.658 12.4916C28.1141 12.0355 28.1141 11.2981 27.658 10.842Z" fill="black" fill-opacity="0.69"/>
</g>
<defs>
<clipPath id="clip0">
<rect width="28" height="28" fill="white"/>
</clipPath>
</defs>
</svg>
